<svg width="272" height="101" viewBox="0 0 272 101" fill="none" xmlns="http://www.w3.org/2000/svg">
<g filter="url(#filter0_d_410_71532)">
<rect x="4" width="264" height="93" rx="19" fill="black"/>
<path d="M63.16 72.7532C60.1232 75.7084 56.8074 75.2418 53.6156 73.842C50.2379 72.411 47.1391 72.3488 43.5755 73.842C39.1132 75.7706 36.7581 75.2107 34.0931 72.7532C18.9709 57.1063 21.202 33.2782 38.3695 32.4072C42.5529 32.6249 45.4657 34.7091 47.9138 34.8958C51.5704 34.1492 55.0721 32.0028 58.9766 32.2828C63.6558 32.6561 67.1885 34.5225 69.5126 37.8821C59.8443 43.6991 62.1374 56.4842 71 60.0615C69.2337 64.7276 66.9406 69.3625 63.129 72.7843L63.16 72.7532ZM47.6039 32.2206C47.1391 25.2837 52.748 19.5599 59.1935 19C60.0922 27.0257 51.9423 32.9982 47.6039 32.2206Z" fill="white"/>
<path d="M97.9841 30V28.538H101.265C102.138 28.538 102.903 28.351 103.56 27.977C104.217 27.5917 104.727 27.0647 105.09 26.396C105.464 25.7273 105.651 24.9567 105.651 24.084C105.651 23.2227 105.464 22.4577 105.09 21.789C104.716 21.1203 104.2 20.599 103.543 20.225C102.886 19.851 102.126 19.664 101.265 19.664H98.0011V18.202H101.299C102.16 18.202 102.954 18.3493 103.679 18.644C104.416 18.9387 105.05 19.3523 105.583 19.885C106.127 20.4177 106.546 21.041 106.841 21.755C107.147 22.469 107.3 23.251 107.3 24.101C107.3 24.9397 107.147 25.7217 106.841 26.447C106.546 27.161 106.133 27.7843 105.6 28.317C105.067 28.8497 104.433 29.2633 103.696 29.558C102.971 29.8527 102.183 30 101.333 30H97.9841ZM96.9301 30V18.202H98.5281V30H96.9301ZM112.931 30.17C112.138 30.17 111.424 29.983 110.789 29.609C110.154 29.235 109.65 28.7307 109.276 28.096C108.902 27.45 108.715 26.7303 108.715 25.937C108.715 25.155 108.902 24.4523 109.276 23.829C109.65 23.1943 110.154 22.69 110.789 22.316C111.424 21.942 112.138 21.755 112.931 21.755C113.713 21.755 114.421 21.942 115.056 22.316C115.702 22.6787 116.212 23.1773 116.586 23.812C116.96 24.4467 117.147 25.155 117.147 25.937C117.147 26.7303 116.96 27.45 116.586 28.096C116.212 28.7307 115.702 29.235 115.056 29.609C114.421 29.983 113.713 30.17 112.931 30.17ZM112.931 28.691C113.441 28.691 113.894 28.572 114.291 28.334C114.688 28.096 114.999 27.773 115.226 27.365C115.453 26.9457 115.566 26.4697 115.566 25.937C115.566 25.4157 115.447 24.951 115.209 24.543C114.982 24.135 114.671 23.8177 114.274 23.591C113.889 23.353 113.441 23.234 112.931 23.234C112.421 23.234 111.968 23.353 111.571 23.591C111.174 23.8177 110.863 24.135 110.636 24.543C110.409 24.951 110.296 25.4157 110.296 25.937C110.296 26.4697 110.409 26.9457 110.636 27.365C110.863 27.773 111.174 28.096 111.571 28.334C111.968 28.572 112.421 28.691 112.931 28.691ZM120.951 30L117.755 21.925H119.353L121.665 28.215H121.155L123.45 21.925H124.334L126.629 28.215H126.119L128.431 21.925H130.029L126.85 30H125.949L123.62 23.897H124.181L121.835 30H120.951ZM137.101 30V25.291C137.101 24.679 136.908 24.1747 136.523 23.778C136.137 23.3813 135.639 23.183 135.027 23.183C134.619 23.183 134.256 23.2737 133.939 23.455C133.621 23.6363 133.372 23.8857 133.191 24.203C133.009 24.5203 132.919 24.883 132.919 25.291L132.29 24.934C132.29 24.322 132.426 23.778 132.698 23.302C132.97 22.826 133.349 22.452 133.837 22.18C134.324 21.8967 134.874 21.755 135.486 21.755C136.098 21.755 136.636 21.908 137.101 22.214C137.577 22.52 137.951 22.9223 138.223 23.421C138.495 23.9083 138.631 24.4297 138.631 24.985V30H137.101ZM131.389 30V21.925H132.919V30H131.389ZM140.702 30V17.862H142.232V30H140.702ZM148.16 30.17C147.366 30.17 146.652 29.983 146.018 29.609C145.383 29.235 144.879 28.7307 144.505 28.096C144.131 27.45 143.944 26.7303 143.944 25.937C143.944 25.155 144.131 24.4523 144.505 23.829C144.879 23.1943 145.383 22.69 146.018 22.316C146.652 21.942 147.366 21.755 148.16 21.755C148.942 21.755 149.65 21.942 150.285 22.316C150.931 22.6787 151.441 23.1773 151.815 23.812C152.189 24.4467 152.376 25.155 152.376 25.937C152.376 26.7303 152.189 27.45 151.815 28.096C151.441 28.7307 150.931 29.235 150.285 29.609C149.65 29.983 148.942 30.17 148.16 30.17ZM148.16 28.691C148.67 28.691 149.123 28.572 149.52 28.334C149.916 28.096 150.228 27.773 150.455 27.365C150.681 26.9457 150.795 26.4697 150.795 25.937C150.795 25.4157 150.676 24.951 150.438 24.543C150.211 24.135 149.899 23.8177 149.503 23.591C149.117 23.353 148.67 23.234 148.16 23.234C147.65 23.234 147.196 23.353 146.8 23.591C146.403 23.8177 146.091 24.135 145.865 24.543C145.638 24.951 145.525 25.4157 145.525 25.937C145.525 26.4697 145.638 26.9457 145.865 27.365C146.091 27.773 146.403 28.096 146.8 28.334C147.196 28.572 147.65 28.691 148.16 28.691ZM157.534 30.17C156.797 30.17 156.128 29.9887 155.528 29.626C154.927 29.252 154.451 28.7477 154.1 28.113C153.76 27.4783 153.59 26.7643 153.59 25.971C153.59 25.1777 153.76 24.4637 154.1 23.829C154.451 23.1943 154.921 22.69 155.511 22.316C156.111 21.942 156.786 21.755 157.534 21.755C158.146 21.755 158.69 21.8853 159.166 22.146C159.653 22.3953 160.044 22.7467 160.339 23.2C160.633 23.642 160.798 24.1577 160.832 24.747V27.178C160.798 27.756 160.633 28.2717 160.339 28.725C160.055 29.1783 159.67 29.5353 159.183 29.796C158.707 30.0453 158.157 30.17 157.534 30.17ZM157.789 28.725C158.548 28.725 159.16 28.47 159.625 27.96C160.089 27.4387 160.322 26.7757 160.322 25.971C160.322 25.4157 160.214 24.934 159.999 24.526C159.795 24.1067 159.5 23.7837 159.115 23.557C158.729 23.319 158.282 23.2 157.772 23.2C157.262 23.2 156.808 23.319 156.412 23.557C156.026 23.795 155.72 24.1237 155.494 24.543C155.278 24.951 155.171 25.4213 155.171 25.954C155.171 26.498 155.278 26.9797 155.494 27.399C155.72 27.807 156.032 28.13 156.429 28.368C156.825 28.606 157.279 28.725 157.789 28.725ZM160.22 30V27.824L160.509 25.852L160.22 23.897V21.925H161.767V30H160.22ZM167.411 30.17C166.663 30.17 165.994 29.9887 165.405 29.626C164.816 29.252 164.345 28.7477 163.994 28.113C163.654 27.4783 163.484 26.7643 163.484 25.971C163.484 25.1777 163.654 24.4637 163.994 23.829C164.345 23.1943 164.816 22.69 165.405 22.316C165.994 21.942 166.663 21.755 167.411 21.755C168.012 21.755 168.556 21.8853 169.043 22.146C169.53 22.3953 169.921 22.7467 170.216 23.2C170.522 23.642 170.692 24.1577 170.726 24.747V27.178C170.692 27.756 170.528 28.2717 170.233 28.725C169.938 29.1783 169.547 29.5353 169.06 29.796C168.573 30.0453 168.023 30.17 167.411 30.17ZM167.666 28.725C168.176 28.725 168.618 28.606 168.992 28.368C169.377 28.13 169.678 27.807 169.893 27.399C170.108 26.9797 170.216 26.5037 170.216 25.971C170.216 25.4157 170.103 24.934 169.876 24.526C169.661 24.118 169.36 23.795 168.975 23.557C168.601 23.319 168.159 23.2 167.649 23.2C167.139 23.2 166.691 23.319 166.306 23.557C165.921 23.795 165.615 24.1237 165.388 24.543C165.173 24.951 165.065 25.4213 165.065 25.954C165.065 26.498 165.173 26.9797 165.388 27.399C165.615 27.807 165.921 28.13 166.306 28.368C166.703 28.606 167.156 28.725 167.666 28.725ZM171.661 30H170.114V27.824L170.403 25.852L170.114 23.897V17.862H171.661V30ZM181.114 30.17C180.32 30.17 179.606 29.983 178.972 29.609C178.337 29.235 177.833 28.7307 177.459 28.096C177.085 27.45 176.898 26.7303 176.898 25.937C176.898 25.155 177.085 24.4523 177.459 23.829C177.833 23.1943 178.337 22.69 178.972 22.316C179.606 21.942 180.32 21.755 181.114 21.755C181.896 21.755 182.604 21.942 183.239 22.316C183.885 22.6787 184.395 23.1773 184.769 23.812C185.143 24.4467 185.33 25.155 185.33 25.937C185.33 26.7303 185.143 27.45 184.769 28.096C184.395 28.7307 183.885 29.235 183.239 29.609C182.604 29.983 181.896 30.17 181.114 30.17ZM181.114 28.691C181.624 28.691 182.077 28.572 182.474 28.334C182.87 28.096 183.182 27.773 183.409 27.365C183.635 26.9457 183.749 26.4697 183.749 25.937C183.749 25.4157 183.63 24.951 183.392 24.543C183.165 24.135 182.853 23.8177 182.457 23.591C182.071 23.353 181.624 23.234 181.114 23.234C180.604 23.234 180.15 23.353 179.754 23.591C179.357 23.8177 179.045 24.135 178.819 24.543C178.592 24.951 178.479 25.4157 178.479 25.937C178.479 26.4697 178.592 26.9457 178.819 27.365C179.045 27.773 179.357 28.096 179.754 28.334C180.15 28.572 180.604 28.691 181.114 28.691ZM192.766 30V25.291C192.766 24.679 192.573 24.1747 192.188 23.778C191.802 23.3813 191.304 23.183 190.692 23.183C190.284 23.183 189.921 23.2737 189.604 23.455C189.286 23.6363 189.037 23.8857 188.856 24.203C188.674 24.5203 188.584 24.883 188.584 25.291L187.955 24.934C187.955 24.322 188.091 23.778 188.363 23.302C188.635 22.826 189.014 22.452 189.502 22.18C189.989 21.8967 190.539 21.755 191.151 21.755C191.763 21.755 192.301 21.908 192.766 22.214C193.242 22.52 193.616 22.9223 193.888 23.421C194.16 23.9083 194.296 24.4297 194.296 24.985V30H192.766ZM187.054 30V21.925H188.584V30H187.054ZM201.144 30V18.542H202.674V30H201.144ZM199.155 23.319V21.925H204.663V23.319H199.155ZM211.874 30V25.291C211.874 24.679 211.681 24.1747 211.296 23.778C210.911 23.3813 210.412 23.183 209.8 23.183C209.392 23.183 209.029 23.2737 208.712 23.455C208.395 23.6363 208.145 23.8857 207.964 24.203C207.783 24.5203 207.692 24.883 207.692 25.291L207.063 24.934C207.063 24.322 207.199 23.778 207.471 23.302C207.743 22.826 208.123 22.452 208.61 22.18C209.097 21.8967 209.647 21.755 210.259 21.755C210.871 21.755 211.409 21.891 211.874 22.163C212.35 22.435 212.724 22.8147 212.996 23.302C213.268 23.7893 213.404 24.3503 213.404 24.985V30H211.874ZM206.162 30V17.862H207.692V30H206.162ZM219.216 30.17C218.411 30.17 217.686 29.9887 217.04 29.626C216.394 29.252 215.884 28.7477 215.51 28.113C215.136 27.4783 214.949 26.7587 214.949 25.954C214.949 25.1607 215.13 24.4467 215.493 23.812C215.867 23.1773 216.365 22.6787 216.989 22.316C217.623 21.942 218.332 21.755 219.114 21.755C219.862 21.755 220.519 21.925 221.086 22.265C221.664 22.605 222.111 23.0753 222.429 23.676C222.757 24.2767 222.922 24.9567 222.922 25.716C222.922 25.8293 222.916 25.954 222.905 26.09C222.893 26.2147 222.871 26.362 222.837 26.532H216.02V25.257H222.021L221.46 25.75C221.46 25.206 221.363 24.747 221.171 24.373C220.978 23.9877 220.706 23.693 220.355 23.489C220.003 23.2737 219.578 23.166 219.08 23.166C218.558 23.166 218.099 23.2793 217.703 23.506C217.306 23.7327 217 24.05 216.785 24.458C216.569 24.866 216.462 25.3477 216.462 25.903C216.462 26.4697 216.575 26.9683 216.802 27.399C217.028 27.8183 217.351 28.147 217.771 28.385C218.19 28.6117 218.672 28.725 219.216 28.725C219.669 28.725 220.083 28.6457 220.457 28.487C220.842 28.3283 221.171 28.0903 221.443 27.773L222.429 28.776C222.043 29.2293 221.567 29.575 221.001 29.813C220.445 30.051 219.85 30.17 219.216 30.17ZM92.768 70L101.984 47.6H104.544L113.696 70H109.728L102.56 51.856H103.904L96.672 70H92.768ZM97.312 65.68V62.48H109.184V65.68H97.312ZM124.645 70.32C123.471 70.32 122.426 70.0747 121.509 69.584C120.591 69.072 119.866 68.3787 119.333 67.504C118.821 66.6293 118.565 65.6373 118.565 64.528V60.112C118.565 59.0027 118.831 58.0107 119.365 57.136C119.898 56.2613 120.623 55.5787 121.541 55.088C122.458 54.576 123.493 54.32 124.645 54.32C126.031 54.32 127.279 54.6827 128.389 55.408C129.519 56.112 130.405 57.072 131.045 58.288C131.706 59.4827 132.037 60.8373 132.037 62.352C132.037 63.8453 131.706 65.2 131.045 66.416C130.405 67.6107 129.519 68.56 128.389 69.264C127.279 69.968 126.031 70.32 124.645 70.32ZM124.069 66.992C124.922 66.992 125.669 66.8 126.309 66.416C126.97 66.0107 127.482 65.456 127.845 64.752C128.229 64.048 128.421 63.2373 128.421 62.32C128.421 61.4027 128.229 60.592 127.845 59.888C127.482 59.184 126.97 58.64 126.309 58.256C125.669 57.8507 124.922 57.648 124.069 57.648C123.215 57.648 122.458 57.8507 121.797 58.256C121.135 58.64 120.623 59.184 120.261 59.888C119.898 60.592 119.717 61.4027 119.717 62.32C119.717 63.2373 119.898 64.048 120.261 64.752C120.623 65.456 121.135 66.0107 121.797 66.416C122.458 66.8 123.215 66.992 124.069 66.992ZM116.421 76.4V54.64H119.941V58.768L119.333 62.512L119.941 66.224V76.4H116.421ZM143.207 70.32C142.034 70.32 140.989 70.0747 140.071 69.584C139.154 69.072 138.429 68.3787 137.895 67.504C137.383 66.6293 137.127 65.6373 137.127 64.528V60.112C137.127 59.0027 137.394 58.0107 137.927 57.136C138.461 56.2613 139.186 55.5787 140.103 55.088C141.021 54.576 142.055 54.32 143.207 54.32C144.594 54.32 145.842 54.6827 146.951 55.408C148.082 56.112 148.967 57.072 149.607 58.288C150.269 59.4827 150.599 60.8373 150.599 62.352C150.599 63.8453 150.269 65.2 149.607 66.416C148.967 67.6107 148.082 68.56 146.951 69.264C145.842 69.968 144.594 70.32 143.207 70.32ZM142.631 66.992C143.485 66.992 144.231 66.8 144.871 66.416C145.533 66.0107 146.045 65.456 146.407 64.752C146.791 64.048 146.983 63.2373 146.983 62.32C146.983 61.4027 146.791 60.592 146.407 59.888C146.045 59.184 145.533 58.64 144.871 58.256C144.231 57.8507 143.485 57.648 142.631 57.648C141.778 57.648 141.021 57.8507 140.359 58.256C139.698 58.64 139.186 59.184 138.823 59.888C138.461 60.592 138.279 61.4027 138.279 62.32C138.279 63.2373 138.461 64.048 138.823 64.752C139.186 65.456 139.698 66.0107 140.359 66.416C141.021 66.8 141.778 66.992 142.631 66.992ZM134.983 76.4V54.64H138.503V58.768L137.895 62.512L138.503 66.224V76.4H134.983ZM166.672 70.32C164.901 70.32 163.397 70 162.16 69.36C160.923 68.72 159.813 67.7813 158.832 66.544L161.328 64.048C161.947 64.944 162.683 65.648 163.536 66.16C164.389 66.6507 165.477 66.896 166.8 66.896C168.037 66.896 169.019 66.64 169.744 66.128C170.491 65.616 170.864 64.912 170.864 64.016C170.864 63.2693 170.672 62.6613 170.288 62.192C169.904 61.7227 169.392 61.3387 168.752 61.04C168.133 60.72 167.44 60.4427 166.672 60.208C165.925 59.952 165.168 59.6747 164.4 59.376C163.653 59.056 162.96 58.6613 162.32 58.192C161.701 57.7227 161.2 57.1147 160.816 56.368C160.432 55.6213 160.24 54.672 160.24 53.52C160.24 52.1973 160.56 51.0773 161.2 50.16C161.861 49.2213 162.747 48.5067 163.856 48.016C164.965 47.5253 166.203 47.28 167.568 47.28C169.04 47.28 170.352 47.568 171.504 48.144C172.677 48.72 173.627 49.456 174.352 50.352L171.856 52.848C171.216 52.1227 170.544 51.5893 169.84 51.248C169.157 50.8853 168.368 50.704 167.472 50.704C166.363 50.704 165.488 50.928 164.848 51.376C164.229 51.824 163.92 52.4533 163.92 53.264C163.92 53.9467 164.112 54.5013 164.496 54.928C164.88 55.3333 165.381 55.6853 166 55.984C166.64 56.2613 167.333 56.528 168.08 56.784C168.848 57.04 169.605 57.328 170.352 57.648C171.12 57.968 171.813 58.384 172.432 58.896C173.072 59.3867 173.584 60.0267 173.968 60.816C174.352 61.6053 174.544 62.5973 174.544 63.792C174.544 65.7973 173.829 67.3867 172.4 68.56C170.992 69.7333 169.083 70.32 166.672 70.32ZM180.069 70V48.24H183.589V70H180.069ZM176.389 57.84V54.64H187.269V57.84H176.389ZM196.43 70.32C194.936 70.32 193.582 69.968 192.366 69.264C191.15 68.5387 190.179 67.568 189.454 66.352C188.75 65.136 188.398 63.7813 188.398 62.288C188.398 60.7947 188.75 59.4507 189.454 58.256C190.179 57.0613 191.15 56.112 192.366 55.408C193.582 54.6827 194.936 54.32 196.43 54.32C197.944 54.32 199.31 54.672 200.526 55.376C201.742 56.08 202.702 57.04 203.406 58.256C204.131 59.4507 204.494 60.7947 204.494 62.288C204.494 63.7813 204.131 65.136 203.406 66.352C202.702 67.568 201.742 68.5387 200.526 69.264C199.31 69.968 197.944 70.32 196.43 70.32ZM196.43 66.928C197.304 66.928 198.072 66.736 198.734 66.352C199.416 65.9467 199.939 65.392 200.302 64.688C200.686 63.984 200.878 63.184 200.878 62.288C200.878 61.392 200.686 60.6027 200.302 59.92C199.918 59.2373 199.395 58.704 198.734 58.32C198.072 57.9147 197.304 57.712 196.43 57.712C195.576 57.712 194.808 57.9147 194.126 58.32C193.464 58.704 192.942 59.2373 192.558 59.92C192.195 60.6027 192.014 61.392 192.014 62.288C192.014 63.184 192.195 63.984 192.558 64.688C192.942 65.392 193.464 65.9467 194.126 66.352C194.808 66.736 195.576 66.928 196.43 66.928ZM207.421 70V54.64H210.941V70H207.421ZM210.941 61.456L209.725 60.848C209.725 58.9067 210.151 57.3387 211.005 56.144C211.879 54.928 213.191 54.32 214.941 54.32C215.709 54.32 216.402 54.4587 217.021 54.736C217.639 55.0133 218.215 55.4613 218.749 56.08L216.445 58.448C216.167 58.1493 215.858 57.936 215.517 57.808C215.175 57.68 214.781 57.616 214.333 57.616C213.351 57.616 212.541 57.9253 211.901 58.544C211.261 59.1627 210.941 60.1333 210.941 61.456ZM227.119 70.32C225.583 70.32 224.197 69.9787 222.959 69.296C221.743 68.592 220.773 67.632 220.047 66.416C219.343 65.2 218.991 63.8347 218.991 62.32C218.991 60.8053 219.343 59.4507 220.047 58.256C220.751 57.04 221.701 56.08 222.895 55.376C224.111 54.672 225.455 54.32 226.927 54.32C228.357 54.32 229.615 54.6507 230.703 55.312C231.813 55.9733 232.677 56.88 233.295 58.032C233.935 59.184 234.255 60.496 234.255 61.968C234.255 62.224 234.234 62.4907 234.191 62.768C234.17 63.024 234.127 63.312 234.063 63.632H221.455V60.752H232.239L230.927 61.904C230.885 60.9653 230.703 60.176 230.383 59.536C230.063 58.896 229.605 58.4053 229.007 58.064C228.431 57.7227 227.717 57.552 226.863 57.552C225.967 57.552 225.189 57.744 224.527 58.128C223.866 58.512 223.354 59.056 222.991 59.76C222.629 60.4427 222.447 61.264 222.447 62.224C222.447 63.184 222.639 64.0267 223.023 64.752C223.407 65.4773 223.951 66.0427 224.655 66.448C225.359 66.832 226.17 67.024 227.087 67.024C227.877 67.024 228.602 66.8853 229.263 66.608C229.946 66.3307 230.522 65.9253 230.991 65.392L233.231 67.664C232.485 68.5387 231.578 69.2 230.511 69.648C229.445 70.096 228.314 70.32 227.119 70.32Z" fill="white"/>
</g>
<defs>
<filter id="filter0_d_410_71532" x="0" y="0" width="272" height="101" filterUnits="userSpaceOnUse" color-interpolation-filters="sRGB">
<feFlood flood-opacity="0" result="BackgroundImageFix"/>
<feColorMatrix in="SourceAlpha" type="matrix" values="0 0 0 0 0 0 0 0 0 0 0 0 0 0 0 0 0 0 127 0" result="hardAlpha"/>
<feOffset dy="4"/>
<feGaussianBlur stdDeviation="2"/>
<feComposite in2="hardAlpha" operator="out"/>
<feColorMatrix type="matrix" values="0 0 0 0 0 0 0 0 0 0 0 0 0 0 0 0 0 0 0.25 0"/>
<feBlend mode="normal" in2="BackgroundImageFix" result="effect1_dropShadow_410_71532"/>
<feBlend mode="normal" in="SourceGraphic" in2="effect1_dropShadow_410_71532" result="shape"/>
</filter>
</defs>
</svg>
