<svg width="272" height="101" viewBox="0 0 272 101" fill="none" xmlns="http://www.w3.org/2000/svg">
<g filter="url(#filter0_d_410_71526)">
<rect x="4" width="264" height="93" rx="19" fill="black"/>
<path d="M83.732 30.17C82.9047 30.17 82.1283 30.017 81.403 29.711C80.689 29.3937 80.06 28.9573 79.516 28.402C78.9833 27.8467 78.564 27.2007 78.258 26.464C77.952 25.7273 77.799 24.934 77.799 24.084C77.799 23.234 77.952 22.4463 78.258 21.721C78.564 20.9843 78.989 20.3383 79.533 19.783C80.077 19.2277 80.7117 18.797 81.437 18.491C82.1737 18.185 82.9727 18.032 83.834 18.032C84.7747 18.032 85.6417 18.2133 86.435 18.576C87.2283 18.9387 87.8913 19.46 88.424 20.14L87.319 21.245C86.945 20.701 86.452 20.2873 85.84 20.004C85.228 19.7093 84.5593 19.562 83.834 19.562C82.9727 19.562 82.2077 19.7547 81.539 20.14C80.8817 20.5253 80.366 21.058 79.992 21.738C79.6293 22.418 79.448 23.2 79.448 24.084C79.448 24.9793 79.635 25.767 80.009 26.447C80.383 27.127 80.8873 27.6597 81.522 28.045C82.1567 28.4303 82.882 28.623 83.698 28.623C84.5253 28.623 85.2393 28.4643 85.84 28.147C86.452 27.8297 86.9223 27.365 87.251 26.753C87.5797 26.1297 87.744 25.3703 87.744 24.475L88.713 25.172H83.613V23.71H89.393V23.948C89.393 25.3193 89.1493 26.4697 88.662 27.399C88.186 28.317 87.5173 29.0083 86.656 29.473C85.806 29.9377 84.8313 30.17 83.732 30.17ZM91.5424 30V18.202H93.1404V30H91.5424ZM92.6304 30V28.538H99.3964V30H92.6304ZM92.6304 24.662V23.268H98.8354V24.662H92.6304ZM92.6304 19.664V18.202H99.3114V19.664H92.6304ZM104.25 30V18.542H105.848V30H104.25ZM100.238 19.664V18.202H109.843V19.664H100.238ZM115.017 30V18.202H116.615V30H115.017ZM122.528 30V18.542H124.126V30H122.528ZM118.516 19.664V18.202H128.121V19.664H118.516ZM138.667 30.17C137.829 30.17 137.047 30.017 136.321 29.711C135.596 29.3937 134.961 28.9573 134.417 28.402C133.873 27.8353 133.448 27.1837 133.142 26.447C132.848 25.7103 132.7 24.9227 132.7 24.084C132.7 23.234 132.848 22.4463 133.142 21.721C133.448 20.9843 133.868 20.3383 134.4 19.783C134.944 19.2277 135.573 18.797 136.287 18.491C137.013 18.185 137.795 18.032 138.633 18.032C139.472 18.032 140.248 18.185 140.962 18.491C141.688 18.797 142.322 19.2277 142.866 19.783C143.41 20.3383 143.835 20.9843 144.141 21.721C144.447 22.4577 144.6 23.251 144.6 24.101C144.6 24.9397 144.447 25.7273 144.141 26.464C143.835 27.2007 143.41 27.8467 142.866 28.402C142.334 28.9573 141.705 29.3937 140.979 29.711C140.265 30.017 139.495 30.17 138.667 30.17ZM138.633 28.64C139.483 28.64 140.226 28.4473 140.86 28.062C141.506 27.6653 142.016 27.127 142.39 26.447C142.764 25.7557 142.951 24.968 142.951 24.084C142.951 23.4267 142.844 22.826 142.628 22.282C142.413 21.7267 142.113 21.245 141.727 20.837C141.342 20.429 140.889 20.1173 140.367 19.902C139.846 19.6753 139.268 19.562 138.633 19.562C137.795 19.562 137.052 19.7547 136.406 20.14C135.772 20.5253 135.267 21.058 134.893 21.738C134.531 22.418 134.349 23.2 134.349 24.084C134.349 24.7413 134.451 25.3533 134.655 25.92C134.871 26.4753 135.165 26.957 135.539 27.365C135.925 27.7617 136.378 28.0733 136.899 28.3C137.432 28.5267 138.01 28.64 138.633 28.64ZM146.792 30V18.202H147.914L148.39 20.055V30H146.792ZM154.952 30L147.71 20.327L147.914 18.202L155.173 27.858L154.952 30ZM154.952 30L154.476 28.249V18.202H156.074V30H154.952ZM89.544 70.32C88.008 70.32 86.5573 70.0213 85.192 69.424C83.8267 68.8267 82.632 68.0053 81.608 66.96C80.584 65.8933 79.7733 64.6667 79.176 63.28C78.6 61.872 78.312 60.368 78.312 58.768C78.312 57.168 78.6 55.6747 79.176 54.288C79.7733 52.9013 80.584 51.6853 81.608 50.64C82.6533 49.5733 83.8693 48.752 85.256 48.176C86.664 47.5787 88.1787 47.28 89.8 47.28C91.5707 47.28 93.2133 47.6213 94.728 48.304C96.2427 48.9867 97.512 49.9573 98.536 51.216L96.04 53.712C95.3787 52.7733 94.4933 52.0587 93.384 51.568C92.2747 51.056 91.08 50.8 89.8 50.8C88.264 50.8 86.9093 51.1413 85.736 51.824C84.584 52.4853 83.688 53.4133 83.048 54.608C82.408 55.8027 82.088 57.1893 82.088 58.768C82.088 60.3467 82.408 61.744 83.048 62.96C83.7093 64.1547 84.5947 65.0933 85.704 65.776C86.8133 66.4587 88.072 66.8 89.48 66.8C90.9733 66.8 92.2533 66.5333 93.32 66C94.408 65.4453 95.24 64.6347 95.816 63.568C96.392 62.48 96.68 61.1467 96.68 59.568L98.984 61.232H89.416V57.872H100.488V58.384C100.488 61.0507 100.008 63.2693 99.048 65.04C98.1093 66.8107 96.8187 68.1333 95.176 69.008C93.5333 69.8827 91.656 70.32 89.544 70.32ZM110.711 70.32C109.217 70.32 107.863 69.968 106.647 69.264C105.431 68.5387 104.46 67.568 103.735 66.352C103.031 65.136 102.679 63.7813 102.679 62.288C102.679 60.7947 103.031 59.4507 103.735 58.256C104.46 57.0613 105.431 56.112 106.647 55.408C107.863 54.6827 109.217 54.32 110.711 54.32C112.225 54.32 113.591 54.672 114.807 55.376C116.023 56.08 116.983 57.04 117.687 58.256C118.412 59.4507 118.775 60.7947 118.775 62.288C118.775 63.7813 118.412 65.136 117.687 66.352C116.983 67.568 116.023 68.5387 114.807 69.264C113.591 69.968 112.225 70.32 110.711 70.32ZM110.711 66.928C111.585 66.928 112.353 66.736 113.015 66.352C113.697 65.9467 114.22 65.392 114.583 64.688C114.967 63.984 115.159 63.184 115.159 62.288C115.159 61.392 114.967 60.6027 114.583 59.92C114.199 59.2373 113.676 58.704 113.015 58.32C112.353 57.9147 111.585 57.712 110.711 57.712C109.857 57.712 109.089 57.9147 108.407 58.32C107.745 58.704 107.223 59.2373 106.839 59.92C106.476 60.6027 106.295 61.392 106.295 62.288C106.295 63.184 106.476 63.984 106.839 64.688C107.223 65.392 107.745 65.9467 108.407 66.352C109.089 66.736 109.857 66.928 110.711 66.928ZM128.742 70.32C127.249 70.32 125.894 69.968 124.678 69.264C123.462 68.5387 122.491 67.568 121.766 66.352C121.062 65.136 120.71 63.7813 120.71 62.288C120.71 60.7947 121.062 59.4507 121.766 58.256C122.491 57.0613 123.462 56.112 124.678 55.408C125.894 54.6827 127.249 54.32 128.742 54.32C130.257 54.32 131.622 54.672 132.838 55.376C134.054 56.08 135.014 57.04 135.718 58.256C136.443 59.4507 136.806 60.7947 136.806 62.288C136.806 63.7813 136.443 65.136 135.718 66.352C135.014 67.568 134.054 68.5387 132.838 69.264C131.622 69.968 130.257 70.32 128.742 70.32ZM128.742 66.928C129.617 66.928 130.385 66.736 131.046 66.352C131.729 65.9467 132.251 65.392 132.614 64.688C132.998 63.984 133.19 63.184 133.19 62.288C133.19 61.392 132.998 60.6027 132.614 59.92C132.23 59.2373 131.707 58.704 131.046 58.32C130.385 57.9147 129.617 57.712 128.742 57.712C127.889 57.712 127.121 57.9147 126.438 58.32C125.777 58.704 125.254 59.2373 124.87 59.92C124.507 60.6027 124.326 61.392 124.326 62.288C124.326 63.184 124.507 63.984 124.87 64.688C125.254 65.392 125.777 65.9467 126.438 66.352C127.121 66.736 127.889 66.928 128.742 66.928ZM146.133 76.72C144.512 76.72 143.093 76.4213 141.877 75.824C140.661 75.248 139.68 74.4267 138.933 73.36L141.237 71.056C141.856 71.824 142.56 72.4 143.349 72.784C144.139 73.168 145.088 73.36 146.197 73.36C147.584 73.36 148.683 72.9973 149.493 72.272C150.304 71.568 150.709 70.5973 150.709 69.36V65.584L151.317 62.192L150.709 58.768V54.64H154.229V69.36C154.229 70.832 153.888 72.112 153.205 73.2C152.523 74.3093 151.573 75.1733 150.357 75.792C149.141 76.4107 147.733 76.72 146.133 76.72ZM145.973 69.68C144.608 69.68 143.371 69.3493 142.261 68.688C141.173 68.0053 140.309 67.0773 139.669 65.904C139.051 64.7307 138.741 63.4187 138.741 61.968C138.741 60.5173 139.051 59.216 139.669 58.064C140.309 56.912 141.173 56.0053 142.261 55.344C143.371 54.6613 144.608 54.32 145.973 54.32C147.189 54.32 148.256 54.5653 149.173 55.056C150.091 55.5467 150.805 56.2293 151.317 57.104C151.829 57.9573 152.085 58.96 152.085 60.112V63.888C152.085 65.0187 151.819 66.0213 151.285 66.896C150.773 67.7707 150.059 68.4533 149.141 68.944C148.224 69.4347 147.168 69.68 145.973 69.68ZM146.677 66.352C147.531 66.352 148.277 66.1707 148.917 65.808C149.557 65.4453 150.048 64.944 150.389 64.304C150.752 63.6427 150.933 62.8747 150.933 62C150.933 61.1253 150.752 60.368 150.389 59.728C150.048 59.0667 149.557 58.5547 148.917 58.192C148.277 57.8293 147.531 57.648 146.677 57.648C145.824 57.648 145.067 57.8293 144.405 58.192C143.765 58.5547 143.264 59.0667 142.901 59.728C142.539 60.368 142.357 61.1253 142.357 62C142.357 62.8533 142.539 63.6107 142.901 64.272C143.264 64.9333 143.765 65.4453 144.405 65.808C145.067 66.1707 145.824 66.352 146.677 66.352ZM158.14 70V46.96H161.66V70H158.14ZM172.713 70.32C171.177 70.32 169.79 69.9787 168.553 69.296C167.337 68.592 166.366 67.632 165.641 66.416C164.937 65.2 164.585 63.8347 164.585 62.32C164.585 60.8053 164.937 59.4507 165.641 58.256C166.345 57.04 167.294 56.08 168.489 55.376C169.705 54.672 171.049 54.32 172.521 54.32C173.95 54.32 175.209 54.6507 176.297 55.312C177.406 55.9733 178.27 56.88 178.889 58.032C179.529 59.184 179.849 60.496 179.849 61.968C179.849 62.224 179.828 62.4907 179.785 62.768C179.764 63.024 179.721 63.312 179.657 63.632H167.049V60.752H177.833L176.521 61.904C176.478 60.9653 176.297 60.176 175.977 59.536C175.657 58.896 175.198 58.4053 174.601 58.064C174.025 57.7227 173.31 57.552 172.457 57.552C171.561 57.552 170.782 57.744 170.121 58.128C169.46 58.512 168.948 59.056 168.585 59.76C168.222 60.4427 168.041 61.264 168.041 62.224C168.041 63.184 168.233 64.0267 168.617 64.752C169.001 65.4773 169.545 66.0427 170.249 66.448C170.953 66.832 171.764 67.024 172.681 67.024C173.47 67.024 174.196 66.8853 174.857 66.608C175.54 66.3307 176.116 65.9253 176.585 65.392L178.825 67.664C178.078 68.5387 177.172 69.2 176.105 69.648C175.038 70.096 173.908 70.32 172.713 70.32ZM192.085 61.552V58.352H197.685C198.453 58.352 199.125 58.2027 199.701 57.904C200.298 57.584 200.768 57.1467 201.109 56.592C201.45 56.016 201.621 55.344 201.621 54.576C201.621 53.808 201.45 53.1467 201.109 52.592C200.768 52.016 200.298 51.5787 199.701 51.28C199.125 50.96 198.453 50.8 197.685 50.8H192.085V47.6H197.877C199.285 47.6 200.544 47.888 201.653 48.464C202.784 49.04 203.669 49.8507 204.309 50.896C204.97 51.9413 205.301 53.168 205.301 54.576C205.301 55.984 204.97 57.2107 204.309 58.256C203.669 59.3013 202.784 60.112 201.653 60.688C200.544 61.264 199.285 61.552 197.877 61.552H192.085ZM189.557 70V47.6H193.237V70H189.557ZM208.39 70V46.96H211.91V70H208.39ZM222.259 70.32C220.872 70.32 219.614 69.968 218.483 69.264C217.374 68.56 216.488 67.6107 215.827 66.416C215.187 65.2 214.867 63.8453 214.867 62.352C214.867 60.8373 215.187 59.4827 215.827 58.288C216.488 57.072 217.374 56.112 218.483 55.408C219.614 54.6827 220.872 54.32 222.259 54.32C223.432 54.32 224.467 54.576 225.363 55.088C226.28 55.5787 227.006 56.2613 227.539 57.136C228.072 58.0107 228.339 59.0027 228.339 60.112V64.528C228.339 65.6373 228.072 66.6293 227.539 67.504C227.027 68.3787 226.312 69.072 225.395 69.584C224.478 70.0747 223.432 70.32 222.259 70.32ZM222.835 66.992C224.136 66.992 225.182 66.5547 225.971 65.68C226.782 64.8053 227.187 63.6853 227.187 62.32C227.187 61.4027 227.006 60.592 226.643 59.888C226.28 59.184 225.768 58.64 225.107 58.256C224.467 57.8507 223.71 57.648 222.835 57.648C221.982 57.648 221.224 57.8507 220.563 58.256C219.923 58.64 219.411 59.184 219.027 59.888C218.664 60.592 218.483 61.4027 218.483 62.32C218.483 63.2373 218.664 64.048 219.027 64.752C219.411 65.456 219.923 66.0107 220.563 66.416C221.224 66.8 221.982 66.992 222.835 66.992ZM226.963 70V65.872L227.571 62.128L226.963 58.416V54.64H230.483V70H226.963ZM239.35 70.16L232.79 54.64H236.661L241.142 66.032H240.022L244.758 54.64H248.662L241.526 70.16H239.35ZM234.774 76.4L239.542 66.576L241.526 70.16L238.678 76.4H234.774Z" fill="white"/>
<path d="M40.9472 44.8367L19.1943 66.7704C19.4386 67.6036 19.8776 68.372 20.4777 69.0168C21.0779 69.6617 21.8232 70.1659 22.6569 70.4911C23.4905 70.8162 24.3904 70.9536 25.2877 70.8927C26.185 70.8318 27.0559 70.5743 27.8339 70.1398L52.31 56.7239L40.9472 44.8367Z" fill="#EA4335"/>
<path d="M62.9435 41.1086L52.3592 35.2739L40.4453 45.3358L52.4077 56.6927L62.9113 50.9206C63.8418 50.4517 64.6212 49.7466 65.165 48.8817C65.7088 48.0169 65.9963 47.0253 65.9963 46.0145C65.9963 45.0036 65.7088 44.012 65.165 43.1472C64.6212 42.2824 63.8418 41.5773 62.9113 41.1084H62.9438L62.9435 41.1086Z" fill="#FBBC04"/>
<path d="M19.1947 25.1497C19.0632 25.6175 18.9977 26.1002 19.0001 26.5848V65.3352C19.0014 65.8196 19.0668 66.3019 19.1947 66.7705L41.6932 45.3984L19.1947 25.1497Z" fill="#4285F4"/>
<path d="M41.1093 45.9601L52.3586 35.274L27.9151 21.7956C26.9954 21.2772 25.9494 21.0027 24.8836 21C22.2388 20.9951 19.9136 22.6845 19.1943 25.1341L41.1093 45.9601Z" fill="#34A853"/>
</g>
<defs>
<filter id="filter0_d_410_71526" x="0" y="0" width="272" height="101" filterUnits="userSpaceOnUse" color-interpolation-filters="sRGB">
<feFlood flood-opacity="0" result="BackgroundImageFix"/>
<feColorMatrix in="SourceAlpha" type="matrix" values="0 0 0 0 0 0 0 0 0 0 0 0 0 0 0 0 0 0 127 0" result="hardAlpha"/>
<feOffset dy="4"/>
<feGaussianBlur stdDeviation="2"/>
<feComposite in2="hardAlpha" operator="out"/>
<feColorMatrix type="matrix" values="0 0 0 0 0 0 0 0 0 0 0 0 0 0 0 0 0 0 0.25 0"/>
<feBlend mode="normal" in2="BackgroundImageFix" result="effect1_dropShadow_410_71526"/>
<feBlend mode="normal" in="SourceGraphic" in2="effect1_dropShadow_410_71526" result="shape"/>
</filter>
</defs>
</svg>
